<svg xmlns="http://www.w3.org/2000/svg" xmlns:xlink="http://www.w3.org/1999/xlink" viewBox="0 0 222.2 217.75"><defs><style>.cls-1{fill:none;}.cls-2{fill:#2b2b2a;}.cls-3{clip-path:url(#clip-path);}.cls-4{fill:#dedd00;}</style><clipPath id="clip-path"><path class="cls-1" d="M173.86,174.18l-96.69,23a6.38,6.38,0,0,1-7.81-5.42l-1.67-13.5q0-.3-.1-.6L37.34,41.78a6.38,6.38,0,0,1,4.75-7.6l89.77-21.34a6.38,6.38,0,0,1,7.66,4.65l34.12,134.94q.07.3.18.58l4.58,12.81A6.38,6.38,0,0,1,173.86,174.18Z"/></clipPath></defs><title>Asset 2</title><g id="Layer_2" data-name="Layer 2"><g id="Layer_1-2" data-name="Layer 1"><path class="cls-2" d="M222.18,89.21l0-.63a59.61,59.61,0,0,0-5.39-22.68L204.38,38.83a23.73,23.73,0,0,0-27-13.18L150.8,32,144.11,5.48A7.26,7.26,0,0,0,135.39.2L33.24,24.48a7.26,7.26,0,0,0-5.41,8.64L62.25,187.71q.08.34.12.68l1.9,15.36a7.26,7.26,0,0,0,8.89,6.17l110-26.15a7.26,7.26,0,0,0,5.16-9.51l-5.21-14.57q-.12-.33-.2-.66l-2.78-11A60.08,60.08,0,0,0,222.18,89.21Zm-46.7,40.36-20-79.19,26.31-6.25a4.69,4.69,0,0,1,5.33,2.6l12.39,27.08a40.72,40.72,0,0,1,3.67,15.31v.18A41,41,0,0,1,175.48,129.57Z"/><g class="cls-3"><path class="cls-4" d="M21.15,70.13C24.85,73.76,31.54,77,39,78.73s15.44,2,21.33.58c3.79-.89,6.73-2.4,10.87-3a4.33,4.33,0,0,1,1.55,0,3.78,3.78,0,0,1,1.44.71c3.86,2.76,7.17,5.7,12,8.14s11.71,4.32,17,3.64c4.37-.56,7.43-2.78,12.47-1.95a22.21,22.21,0,0,1,4,1.15c8.8,3.22,17.09,7.76,26.79,8.75,7.61.77,13.77-.93,20.7-1.45a13.49,13.49,0,0,1,3,0,16.6,16.6,0,0,1,5.19,2,65.33,65.33,0,0,0,19.9,6l-20.9,114.42L0,185.92Z"/></g></g></g></svg>